<svg id="Layer_2" data-name="Layer 2" xmlns="http://www.w3.org/2000/svg" viewBox="0 0 81.73 86.49"><defs><style>.cls-1{fill:#1ef4f0;}.cls-2{fill:none;stroke:#1ef4f0;stroke-miterlimit:10;}</style></defs><path class="cls-1" d="M723.56,5188.27V5172H707.43c-.26-2.51,1-4,3.22-4h1.77l1-.05c0-1.94,0-3.8,0-5.65,0-.36-.14-.48-.49-.47-.93,0-1.87,0-2.8,0a9.13,9.13,0,0,0-8.84,7.91c-.09.74-.11,1.48-.16,2.29h-3.93v6.16h3.93v10.11h-3.94v6.09h14.14v-6.11h-4v-10.08h10v10.1h-4c0,1.84,0,3.6,0,5.35,0,.64.16.81.79.81,4.24,0,8.47,0,12.71,0,.24,0,.48,0,.71,0v-6.14Z" transform="translate(-671.51 -5134.86)"/><path class="cls-1" d="M720.19,5168.24a3.3,3.3,0,0,0,0-6.59,3.3,3.3,0,1,0,0,6.59Z" transform="translate(-671.51 -5134.86)"/><ellipse class="cls-2" cx="40.86" cy="43.24" rx="40.36" ry="42.74"/></svg>