<svg id="Layer_2" data-name="Layer 2" xmlns="http://www.w3.org/2000/svg" viewBox="0 0 33 22.94"><defs><style>.cls-1{fill:#1ef4f0;}</style></defs><path class="cls-1" d="M888.25,5207.16H872.5c-.71,0-.75-.05-.75-.77q0-10.74,0-21.47c0-.64,0-.7.67-.7h31.64c.63,0,.68.06.68.7v21.47c0,.72,0,.77-.75.77Zm13.63-18.67c-.21.15-.32.22-.43.31L888.94,5198c-.69.51-.68.51-1.35,0l-12.47-9.15-.47-.31v15.75l.48,0h26.21c.41,0,.55-.09.55-.54,0-4.05,0-8.11,0-12.17Zm-24.21-1.38a3.53,3.53,0,0,0,.3.25l10,7.34c.26.19.41.14.64,0q4.13-3,8.27-6.07l2-1.49Z" transform="translate(-871.75 -5184.22)"/></svg>