<svg id="Layer_2" data-name="Layer 2" xmlns="http://www.w3.org/2000/svg" viewBox="0 0 81.73 86.49"><defs><style>.cls-1{fill:none;stroke:#1ef4f0;stroke-miterlimit:10;}.cls-2{fill:#1ef4f0;}</style></defs><ellipse class="cls-1" cx="40.86" cy="43.24" rx="40.36" ry="42.74"/><path class="cls-2" d="M712.36,5197.41c-2.52,0-5.05.13-7.56,0-4.73-.3-8-2.88-9.92-7.48a13.09,13.09,0,0,1-.79-5c0-4.79,0-9.59,0-14.38a11.74,11.74,0,0,1,4-9.05,10.47,10.47,0,0,1,7.18-2.72c4.72,0,9.44,0,14.15,0a10.47,10.47,0,0,1,7.66,3.27,11.88,11.88,0,0,1,3.48,8.64c0,5,.06,10,0,15a11.54,11.54,0,0,1-6.48,10.67,10.68,10.68,0,0,1-5.3,1.1c-2.16,0-4.31,0-6.47,0Zm0-2.89h7.09a7.74,7.74,0,0,0,2.69-.47,8.92,8.92,0,0,0,5.76-8.55q0-6.57,0-13.14a18.29,18.29,0,0,0-.17-3.55,8.6,8.6,0,0,0-8.28-7.17q-6.83,0-13.64,0a10.3,10.3,0,0,0-2.35.23,8.82,8.82,0,0,0-6.61,8.66c0,4.87,0,9.74,0,14.61a11.07,11.07,0,0,0,.18,2.23,8.57,8.57,0,0,0,8.32,7.14Z" transform="translate(-671.51 -5134.86)"/><path class="cls-2" d="M712.41,5168.29c5.08,0,9.23,4.44,9.21,9.83s-4.18,9.76-9.25,9.76a9.81,9.81,0,0,1,0-19.59Zm0,3a6.82,6.82,0,1,0,6.41,6.82A6.63,6.63,0,0,0,712.39,5171.27Z" transform="translate(-671.51 -5134.86)"/><path class="cls-2" d="M720.21,5167.21a2.41,2.41,0,1,1,4.81.1,2.41,2.41,0,1,1-4.81-.1Z" transform="translate(-671.51 -5134.86)"/></svg>