<svg id="Layer_2" data-name="Layer 2" xmlns="http://www.w3.org/2000/svg" viewBox="0 0 81.73 86.49"><defs><style>.cls-1{fill:#1ef4f0;}.cls-2{fill:none;stroke:#1ef4f0;stroke-miterlimit:10;}</style></defs><path class="cls-1" d="M730.58,5175.79c-1-3.79-3.87-6.63-7.07-7-3.49-.36-6.46,1.64-8,5.47-.31.75-.54,1.55-.84,2.43-.13-.23-.22-.39-.3-.55a56,56,0,0,1-3.7-9.59c-.06-.21-.24-.54-.37-.54-1.29,0-2.59,0-3.94,0,0,2,0,3.93,0,5.85,0,2.65.08,5.32-.09,8-.19,2.95-2.67,4.78-5,3.92-1.75-.63-2.79-2.39-2.8-4.83,0-4,0-8,0-12.06v-.8H694.2v.69c0,2.59,0,5.17,0,7.75,0,2-.05,4,.11,6,.38,4.69,3.84,8.4,7.75,8.49s7.53-3.47,8.08-8.21c.13-1.14.12-2.3.17-3.5.07.08.12.11.15.17.86,1.7,1.73,3.4,2.56,5.13a1.63,1.63,0,0,1,.12.88q-.92,5.13-1.87,10.27c-.22,1.22-.43,2.44-.66,3.69h4.27q.95-5.23,1.86-10.43c.1,0,.13,0,.14,0l.49.3a8.82,8.82,0,0,0,6.46,1.42C728.68,5187.79,732,5181.38,730.58,5175.79Zm-8.68,7.9a6.91,6.91,0,0,1-3.77-1.88.94.94,0,0,1-.29-.69c.22-1.28.43-2.58.77-3.82.54-1.92,1.56-3.28,3.33-3.6a2,2,0,0,1,.42,0,4.66,4.66,0,0,1,4.3,5C726.47,5181.71,724.27,5184,721.9,5183.69Z" transform="translate(-671.51 -5134.86)"/><ellipse class="cls-2" cx="40.86" cy="43.24" rx="40.36" ry="42.74"/></svg>