<svg id="Layer_2" data-name="Layer 2" xmlns="http://www.w3.org/2000/svg" viewBox="0 0 29.8 31.97"><defs><style>.cls-1{fill:#1ef4f0;}</style></defs><path class="cls-1" d="M894.9,5211.76a11.83,11.83,0,0,1-6.61-1.77,32.15,32.15,0,0,1-13.54-15.88c-2.15-5.54-.61-10.2,4.18-13.67,1.11-.81,2.15-.94,3,.13a37.77,37.77,0,0,1,3.62,5.8,2.63,2.63,0,0,1-.86,3.13c-.55.5-1.12,1-1.71,1.43-1.32,1-1.75,1.93-1.12,3.42a18.27,18.27,0,0,0,7.65,8.77c1.35.8,2.22.56,3.34-.52,3.26-3.13,4.38-3.17,7.81-.19a17.92,17.92,0,0,1,2.35,2.34,2.09,2.09,0,0,1-.24,3.18C900.5,5210.19,898,5211.88,894.9,5211.76Z" transform="translate(-873.8 -5179.8)"/></svg>