<svg xmlns="http://www.w3.org/2000/svg" viewBox="0 0 36.83 37.05"><defs><style>.cls-1{fill:#1ef4f0;stroke:#1ef4f0;stroke-miterlimit:10;stroke-width:0.75px;}</style></defs><g id="Layer_2" data-name="Layer 2"><g id="Layer_1-2" data-name="Layer 1"><path class="cls-1" d="M14.28,26.22C13,28.84,12,31,10.91,33.22c-.2.41-.32,1.07-.92.89s-.46-.69-.53-1.15c-.56-3.63-1.15-7.25-1.67-10.89a2.28,2.28,0,0,0-1.26-1.95c-1.75-.92-3.44-2-5.15-3-.4-.24-1-.31-1-1s.66-.75,1.07-.92Q13.86,9.81,26.27,4.46L35,.68c.39-.17.81-.53,1.22-.1s0,1-.11,1.4Q30.08,18.68,24,35.34c-.6,1.67-.76,1.73-1.84.43C19.53,32.66,17,29.51,14.28,26.22ZM33.77,4.44a7.66,7.66,0,0,0-1.6,1.66q-8.35,9.29-16.68,18.59c-.36.41-.8.67-.19,1.4C17.77,29,20.17,32,22.78,35.24c.62-1.7,1-2.9,1.49-4.1q4.82-13.28,9.65-26.55c0-.11.07-.29,0-.32S33.79,4.31,33.77,4.44ZM30.54,5.5,26.41,8.36Q18,14.17,9.58,20c-.37.26-.94.38-.81,1.19.54,3.33,1.05,6.67,1.63,10.36.78-1.62,1.41-2.95,2.06-4.26a13.39,13.39,0,0,1,1.81-3.11q7.68-8.49,15.31-17A2.72,2.72,0,0,0,30.54,5.5ZM2.37,16.21c1.73,1,3.26,1.87,4.76,2.81A1.39,1.39,0,0,0,8.88,19C14,15.4,19.06,11.89,24.16,8.37c1.36-.94,2.72-1.9,4.07-2.85l-.15-.41Z"/><path class="cls-1" d="M33.77,4.44c0-.13.06-.26.19-.17s0,.21,0,.32S33.82,4.49,33.77,4.44Z"/></g></g></svg>