<svg xmlns="http://www.w3.org/2000/svg" viewBox="0 0 40.72 46.54"><defs><style>.cls-1{fill:#1ef4f0;}</style></defs><g id="Layer_2" data-name="Layer 2"><g id="Layer_1-2" data-name="Layer 1"><path class="cls-1" d="M13.76,8.78a13,13,0,0,1,6.3-1.41,12.56,12.56,0,0,1,12,10.9,12.72,12.72,0,0,1-2.22,8.82,25.19,25.19,0,0,0-3.87,8l-.06.27a1.12,1.12,0,0,1-1.32,1.07h-7.9c-.75,0-1.5,0-2.24,0a1,1,0,0,1-1.09-.85,22.63,22.63,0,0,0-3-7c-.56-.93-1.2-1.8-1.71-2.74A12.41,12.41,0,0,1,12.2,9.75l.56-.44A5.31,5.31,0,0,0,13.76,8.78Zm14.7,5.32c-.05-.08-.11-.15-.16-.22A10.56,10.56,0,1,0,11,25.94,27.16,27.16,0,0,1,15,34.17c.05.2.12.3.36.3h8.4a.3.3,0,0,0,.35-.26,27,27,0,0,1,3.7-7.7,13.43,13.43,0,0,0,2.08-4.41,10.69,10.69,0,0,0-.79-6.82.6.6,0,0,0,.41-.71c-.05-.36-.35-.47-.65-.52A1.7,1.7,0,0,0,28.46,14.1Zm1.06-.35c0-.18.37-.1.25-.33s-.2-.07-.3,0-.2.24-.18.41c0,.33.26.32.5.27.07,0,.15-.06.2,0a.11.11,0,0,1,0,.15c-.1.06-.27.1-.14.24s.29,0,.4-.08a.33.33,0,0,0,.05-.41.35.35,0,0,0-.35-.24C29.77,13.77,29.65,13.88,29.52,13.75Z"/><path class="cls-1" d="M25.27,37.81a1.21,1.21,0,0,1-.65,2c-.08-.2-.25-.13-.39-.13H15.06c-.14,0-.31-.07-.39.13a1,1,0,0,1-1-1.08c0-.72.28-1.17.9-1.26a4.42,4.42,0,0,1,.82,0h8l.54,0a.54.54,0,0,0-.18.83c.33.38.85.2,1.28.15C25.34,38.37,25.25,38,25.27,37.81Z"/><path class="cls-1" d="M23.64,40.86a1.13,1.13,0,0,1,.72,1.43,1.07,1.07,0,0,1-1.07.87q-3.69,0-7.36,0A1.06,1.06,0,0,1,14.83,42c0-.77.31-1.16,1-1.22.11.15.27.1.42.1h6.84a.85.85,0,0,0,.45-.06s.05,0,.07,0l0,.06Z"/><path class="cls-1" d="M19.59,46.54h-2.1a1.13,1.13,0,0,1-1.27-1.17,1.11,1.11,0,0,1,1.22-1.21c1.41,0,2.83,0,4.25,0A1.14,1.14,0,0,1,23,45.39c0,.73-.49,1.15-1.34,1.15Z"/><path class="cls-1" d="M33.1,10.76a.83.83,0,0,1-.33-1.47c.83-.69,1.69-1.33,2.56-2a.85.85,0,0,1,1.18.17.83.83,0,0,1-.11,1.15c-.85.7-1.74,1.36-2.62,2A.76.76,0,0,1,33.1,10.76Z"/><path class="cls-1" d="M6,10.71a.9.9,0,0,1-.83-.16c-.81-.62-1.64-1.23-2.45-1.87a.85.85,0,0,1-.18-1.21.88.88,0,0,1,1.26-.14c.81.6,1.62,1.22,2.42,1.84a.91.91,0,0,1,.37.88A.79.79,0,0,1,6,10.71Z"/><path class="cls-1" d="M40.64,22.74a1,1,0,0,1-.88.55c-1,0-2,0-3,0a.81.81,0,0,1-.87-.86,1,1,0,0,1,1-.89c1,0,1.94,0,2.9,0A.84.84,0,0,1,40.64,22.74Z"/><path class="cls-1" d="M4.73,22.52a.93.93,0,0,1-.86.57c-1,0-2,0-3,0a.83.83,0,0,1-.89-.9,1,1,0,0,1,1-.86c1,0,1.9,0,2.85,0A.86.86,0,0,1,4.73,22.52Z"/><path class="cls-1" d="M20.5,2.39c0,.47,0,.94,0,1.41a.9.9,0,0,1-.9.93.87.87,0,0,1-.9-.9c0-1,0-2,0-2.94A.87.87,0,0,1,19.6,0a.88.88,0,0,1,.9.89c0,.5,0,1,0,1.5Z"/><path class="cls-1" d="M14.67,39.77c.08-.2.25-.13.39-.13h9.17c.14,0,.31-.07.39.13l-2.31,0H15.12Z"/><path class="cls-1" d="M25.27,37.81c0,.22.07.56-.19.59-.43.05-.95.23-1.28-.15a.54.54,0,0,1,.18-.83.37.37,0,0,1,.29,0c0,.1.06.08.09,0h.17c0,.07.06.09.1,0A.75.75,0,0,1,25.27,37.81Z"/><path class="cls-1" d="M23.56,40.85a.85.85,0,0,1-.45.06H16.27c-.15,0-.31.05-.42-.1.43,0,.87,0,1.31,0H23A.87.87,0,0,1,23.56,40.85Z"/><path class="cls-1" d="M23.64,40.86l0,.06,0-.06Z"/><path class="cls-1" d="M24.63,37.44c0,.08-.07.06-.1,0Z"/><path class="cls-1" d="M24.36,37.43c0,.07-.06.09-.09,0Z"/><path class="cls-1" d="M29.52,13.75c.13.13.25,0,.38,0a.35.35,0,0,1,.35.24.33.33,0,0,1-.05.41c-.11.12-.27.21-.4.08s0-.18.14-.24a.11.11,0,0,0,0-.15c0-.09-.13,0-.2,0-.24,0-.47.06-.5-.27,0-.17,0-.34.18-.41s.25-.07.3,0S29.52,13.57,29.52,13.75Z"/><path class="cls-1" d="M28.6,14.28a.22.22,0,0,1-.14-.18,1.7,1.7,0,0,1,.44,0c.3,0,.6.16.65.52a.6.6,0,0,1-.41.71L29,15a.34.34,0,0,0,.25-.48C29.15,14.22,28.85,14.29,28.6,14.28Z"/><path class="cls-1" d="M28.6,14.28c.25,0,.55-.06.66.25A.34.34,0,0,1,29,15Z"/></g></g></svg>