<svg id="Layer_2" data-name="Layer 2" xmlns="http://www.w3.org/2000/svg" viewBox="0 0 81.73 86.49"><defs><style>.cls-1{fill:none;stroke:#1ef4f0;stroke-miterlimit:10;}.cls-2{fill:#1ef4f0;}</style></defs><ellipse class="cls-1" cx="40.86" cy="43.24" rx="40.36" ry="42.74"/><path class="cls-2" d="M714.38,5175.29l.49-.68a6.68,6.68,0,0,1,5.21-2.84,7.51,7.51,0,0,1,6.19,2.24,9,9,0,0,1,2.26,4.93,19.35,19.35,0,0,1,.24,3c0,4.06,0,8.13,0,12.2,0,.6,0,.6-.56.6-2,0-4,0-6.05,0-.4,0-.5-.13-.5-.54,0-3.84,0-7.67,0-11.51a9.63,9.63,0,0,0-.31-2.4,3.25,3.25,0,0,0-4.9-2.12,4,4,0,0,0-2.06,3.32c0,.31,0,.63,0,.95v11.69c0,.6,0,.6-.55.6-2,0-4,0-6.05,0-.4,0-.52-.11-.51-.53,0-4.89.06-9.77.06-14.65,0-2.24,0-4.47-.05-6.71,0-.41.08-.56.49-.56,2,0,4.09,0,6.13,0,.4,0,.5.15.49.53C714.36,5173.58,714.38,5174.37,714.38,5175.29Z" transform="translate(-671.51 -5134.86)"/><path class="cls-2" d="M696.39,5183.49c0-3.56,0-7.11,0-10.67,0-.44.1-.58.53-.57q3,0,6.09,0c.37,0,.49.12.49.52q0,10.69,0,21.4c0,.42-.12.54-.51.53q-3.08,0-6.13,0c-.36,0-.47-.1-.46-.49C696.4,5190.64,696.39,5187.07,696.39,5183.49Z" transform="translate(-671.51 -5134.86)"/><path class="cls-2" d="M700.05,5169.29a3.78,3.78,0,0,1-4-2.84,3.85,3.85,0,0,1,3.36-4.93,3.8,3.8,0,0,1,3.69,1.46,3.93,3.93,0,0,1,.48,4,3.63,3.63,0,0,1-3.16,2.3A2.19,2.19,0,0,1,700.05,5169.29Z" transform="translate(-671.51 -5134.86)"/></svg>