<svg id="Layer_2" data-name="Layer 2" xmlns="http://www.w3.org/2000/svg" viewBox="0 0 237.22 28.16"><defs><style>.cls-1{fill:#fff;}</style></defs><path class="cls-1" d="M500.44,4234.7h-4.79v-16.09l-1.26-.15c-1.16,4.4-2.16,8.85-3.59,13.17a5.68,5.68,0,0,1-3.12,3.17c-2.38.81-3.23-.93-3.73-3.08a57.23,57.23,0,0,0-4.49-13.33v16.3l-4.72.24v-26.16c6.7-2,7.68-1.42,9.42,5.08.88,3.28,1.77,6.54,2.67,9.81.11.41.33.79.81,1.91,1.13-4.3,2.1-8,3.07-11.64,1.79-6.71,2-6.85,9.73-5.29Z" transform="translate(-417.07 -4207.47)"/><path class="cls-1" d="M417.07,4208.53c5.4,0,10.75-.56,15.92.14,5.86.8,6.85,6.62,2.25,12,3.7,2.08,5.21,5.17,3.8,9.27s-4.85,4.88-8.54,5c-4.39.13-8.78,0-13.43,0Zm5.38,22.06c3.1-.17,5.92,0,8.58-.63a4.28,4.28,0,0,0,2.63-3.2,4.44,4.44,0,0,0-2.84-3.13c-2.63-.58-5.43-.4-8.37-.54Zm.06-12.1c2.68,0,5.17.29,7.55-.12a4,4,0,0,0,2.6-2.73c.06-.89-1.48-2.54-2.49-2.7a48.76,48.76,0,0,0-7.66-.13Z" transform="translate(-417.07 -4207.47)"/><path class="cls-1" d="M469.57,4221.42c.07,8.61-4.86,13.78-13.15,13.79s-13.32-5.05-13.32-13.63,5.11-14,13.15-14S469.5,4212.91,469.57,4221.42Zm-20.72.08c0,5.85,2.92,9.26,7.77,9.13,4.57-.12,7.29-3.56,7.29-9.19s-2.8-9.1-7.35-9.23C451.81,4212.08,448.83,4215.67,448.85,4221.5Z" transform="translate(-417.07 -4207.47)"/><path class="cls-1" d="M564,4218.44h10.72v-10.07h5.4v26.22H575v-11.15H564.14v11.2h-5.27v-26.32H564Z" transform="translate(-417.07 -4207.47)"/><path class="cls-1" d="M591.77,4223.1v7.38h14.76v4.14h-20.1V4208.4h19.43l.27,4.29H591.76v5.7h12.62c1.41,3.11,1.36,4.84-2.36,4.73C598.68,4223,595.33,4223.1,591.77,4223.1Z" transform="translate(-417.07 -4207.47)"/><path class="cls-1" d="M552.57,4216.47c-1.8-.9-3.58-1.86-5.41-2.7-1.41-.64-2.93-1.62-4.35-1.54s-2.7,1.3-4,2c1,1.05,1.85,2.52,3.08,3.07,2.41,1.06,5.09,1.48,7.57,2.41a7.14,7.14,0,0,1,5,7.52,7.69,7.69,0,0,1-5.47,7.3c-8,3-14.92-.42-16.29-8,2.71-1,4.8-1.21,6.41,2.12,1.22,2.51,6,2.81,8.33,1.09s2.08-4.05-.55-5.13c-2.44-1-5.11-1.43-7.6-2.32-3.63-1.29-6.22-3.64-5.8-7.83s3.42-6,7.19-6.7C547.59,4206.46,552.28,4209.18,552.57,4216.47Z" transform="translate(-417.07 -4207.47)"/><path class="cls-1" d="M612.13,4234.92v-26.31h5.16v21.72H630.8c.75,3,.79,4.73-2.67,4.63C623,4234.81,617.82,4234.92,612.13,4234.92Z" transform="translate(-417.07 -4207.47)"/><path class="cls-1" d="M635.1,4234.92v-26.35l5.28-.26v22.07h13.28c1.27,3.24.73,4.68-2.76,4.58C645.77,4234.81,640.63,4234.92,635.1,4234.92Z" transform="translate(-417.07 -4207.47)"/><path class="cls-1" d="M523.87,4220.62c4.58-5.31,3.58-11.16-2.26-11.95-5.17-.7-10.52-.15-15.91-.15v26.4c4.5,0,8.75.07,13,0,3.83-.08,7.49-.76,9-5S527.52,4222.72,523.87,4220.62Zm-12.73-7.81a48.38,48.38,0,0,1,7.63.13c1,.16,2.57,1.8,2.51,2.69a4,4,0,0,1-2.59,2.74c-2.37.41-4.87.12-7.55.12ZM519.3,4230c-2.49.62-5.2.38-8.24.52v-7.49c2.9.14,5.69,0,8.31.55,1.21.26,3,2.12,2.91,3A5,5,0,0,1,519.3,4230Z" transform="translate(-417.07 -4207.47)"/></svg>