<svg id="Layer_1" data-name="Layer 1" xmlns="http://www.w3.org/2000/svg" viewBox="0 0 100 100"><defs><style>.cls-1{fill:#1ef4f0;}</style></defs><title>Artboard 1 copy 3</title><path class="cls-1" d="M75.59,72V38H39.82C39.24,32.72,42,29.58,47,29.56c1.31,0,2.62,0,3.94,0,.73,0,1.46-.07,2.26-.11,0-4.06,0-7.94,0-11.82,0-.76-.32-1-1.08-1-2.07,0-4.14,0-6.21,0-9.82.11-18.37,7.33-19.61,16.57-.2,1.55-.24,3.11-.36,4.8h-8.7V50.92h8.72V72.1H17.19V84.86H48.55V72.07H39.79V51H61.93V72.11H53c0,3.84.06,7.52,0,11.2,0,1.33.35,1.7,1.75,1.69,9.39-.06,18.78,0,28.17,0,.54,0,1.07-.06,1.59-.09V72Z"/><path class="cls-1" d="M68.12,30.07a7.06,7.06,0,0,0,7.3-6.9,7.1,7.1,0,0,0-7.19-6.9,7.2,7.2,0,0,0-7.41,6.87A7.15,7.15,0,0,0,68.12,30.07Z"/></svg>