<svg id="Layer_1" data-name="Layer 1" xmlns="http://www.w3.org/2000/svg" viewBox="0 0 100 100"><defs><style>.cls-1{fill:#1ef4f0;}</style></defs><title>Artboard 1 copy 4</title><path class="cls-1" d="M58.4,9.33l.88.2A49.13,49.13,0,0,1,74.44,16a.16.16,0,0,0,.21.12l2.74,2.07a4.51,4.51,0,0,0,1.47,1.24,5.91,5.91,0,0,0,1.5,1.45,3.74,3.74,0,0,0,1.15,1.16l1.84,2.07L84,25a67.34,67.34,0,0,1,5.54,9.23l1,2.66,1.75,6,.54,3.25a7.63,7.63,0,0,0,.3,2.69,12.78,12.78,0,0,0,0,3.27L93,54.68,92.63,58l-.58,3-.1.58-.63,2.06-1.08,3.29q-1.41,3-2.83,5.91l-3.82,5.58a76.92,76.92,0,0,1-6.31,6.33l-5.88,4a15.24,15.24,0,0,0-2.85,1.51l-.08,0L65,91.72l-1.55.48A2.51,2.51,0,0,1,61,90.71l0-3v-3c-.11-1-.48-2,0-3l0-3a12.36,12.36,0,0,1-.25-3.27,4.72,4.72,0,0,0-.85-2.69l-.1-.27c-.12-.83-1-1.26-1.18-2.14a21,21,0,0,0,4.2-.87,6.63,6.63,0,0,0,2.72-.79,8.39,8.39,0,0,0,3.37-1.49H69l.06-.09a6.14,6.14,0,0,0,2.4-1.69A4.72,4.72,0,0,0,73.07,64a6.11,6.11,0,0,0,1.62-2.15,2,2,0,0,0,.64-1.17,6.89,6.89,0,0,0,1.21-3,7,7,0,0,0,.69-2.65,10.89,10.89,0,0,0,.4-3.31,9.56,9.56,0,0,0,.06-2.67,7,7,0,0,0-.28-3.27,6.74,6.74,0,0,0-.7-2.67,13.46,13.46,0,0,0-2.63-4.68,1.61,1.61,0,0,1-.51-1.56,6.21,6.21,0,0,0,.54-3,5.52,5.52,0,0,0,0-2.68A8.13,8.13,0,0,0,73.48,28c-.49-2.07-.59-2.13-2.89-1.72a4.3,4.3,0,0,0-2.1.55A6.58,6.58,0,0,0,65.71,28a.12.12,0,0,0-.19.07,13,13,0,0,0-3.43,2c-.58.12-1,.81-1.68.51a11.17,11.17,0,0,0-3.83-.77,1.88,1.88,0,0,0-1.19-.2,1.47,1.47,0,0,0-1.18-.1l-.57-.05a15.5,15.5,0,0,0-5-.14,1.17,1.17,0,0,0-.9.08,8.21,8.21,0,0,0-3,.29l-.87.14a.49.49,0,0,0-.59.08l-.6.13c-.52.07-1,.12-1.55.24-.79.18-1.57.54-2.33-.06a10.52,10.52,0,0,0-2.93-1.71,2.9,2.9,0,0,0-1.52-.74,1.47,1.47,0,0,0-1-.43,8.62,8.62,0,0,0-3.45-1.06c-.74-.1-1.62-.5-2.28.31L27,28.27a6,6,0,0,0-.44,2.4,10.64,10.64,0,0,0,0,4.17,4.32,4.32,0,0,0,.58,2.38c.1.63-.5.93-.65,1.45a1.9,1.9,0,0,0-.84,1.14,8.82,8.82,0,0,0-1.65,3c-1.88,5-1.4,9.92,0,14.88a10.37,10.37,0,0,0,1.25,3,5.14,5.14,0,0,0,1.58,2.41,1.28,1.28,0,0,0,.65.79,6.85,6.85,0,0,0,2.34,2.14,14.09,14.09,0,0,0,6,2.94,7.41,7.41,0,0,0,3,.78l.59.08A.46.46,0,0,0,40,70a1.79,1.79,0,0,0,1.18.19.46.46,0,0,0,.62,0c.24.28.09.5-.07.78-.83,1.53-2,3-2,4.83l-1,.65-3,.66-2.7-.07-3.22-1.48-.24-.18A27.72,27.72,0,0,1,26.88,72c-1.42-1.93-3.05-3.63-5.67-3.81a.71.71,0,0,0-.85,0c-.7-.07-1.5-.08-1.72.7s.43,1.13.95,1.5c.27.19.57.35.86.53L22.66,73l.94,1.39.69,1.19A12.2,12.2,0,0,0,26,78.84a1.38,1.38,0,0,0,.67.86,5,5,0,0,0,2.74,1.92c2.46,1.38,5.14,1.08,7.78.93,2.17-.13,2.17-.2,2.32,1.93l0,3v3c-.81,1.77-2.13,2.16-3.94,1.26a23.21,23.21,0,0,0-2.72-1,1.65,1.65,0,0,0-1.2-.57,3.09,3.09,0,0,0-1.33-.69l-3.43-2-.05-.09h-.11a16.38,16.38,0,0,0-2.8-2c-2.73-1.91-4.8-4.49-7.07-6.87L15,76.08l-.35-.52-3.26-5.65A15.47,15.47,0,0,0,10,66.64a7,7,0,0,0-.83-2.57l0-.11-.75-3-.63-3.23L7.45,55a52.13,52.13,0,0,1,.16-9.18l.46-2.69.68-3,2-5.94L14.19,28A47.15,47.15,0,0,1,25.63,16.36,48.28,48.28,0,0,1,38.75,10.1l.6-.17a.47.47,0,0,0,.58-.14l.61-.15a.5.5,0,0,0,.59-.11l.6-.16,8.93-.83A6.58,6.58,0,0,0,53,8.65a2.13,2.13,0,0,0,1.49.07,1.62,1.62,0,0,0,1.2.16.84.84,0,0,0,.88.14,1.9,1.9,0,0,0,1.19.21A.52.52,0,0,0,58.4,9.33Z"/></svg>