<svg id="Layer_1" data-name="Layer 1" xmlns="http://www.w3.org/2000/svg" viewBox="0 0 100 100"><defs><style>.cls-1{fill:#1ef4f0;}</style></defs><title>Artboard 1 copy</title><path class="cls-1" d="M51.64,87.91c-5.12,0-10.26.24-15.36-.06-9.63-.56-16.34-5.51-20.17-14.34a23.56,23.56,0,0,1-1.59-9.63c0-9.21,0-18.41,0-27.61a22,22,0,0,1,8.23-17.36,22,22,0,0,1,14.6-5.22c9.58,0,19.17,0,28.75,0A21.93,21.93,0,0,1,81.7,20a22.09,22.09,0,0,1,7.06,16.56c0,9.61.14,19.21,0,28.81S84,81.61,75.56,85.82a22.91,22.91,0,0,1-10.78,2.12c-4.38-.06-8.76,0-13.14,0Zm0-5.56H66a16.45,16.45,0,0,0,5.48-.9A17.16,17.16,0,0,0,83.2,65q0-12.6,0-25.21A33.17,33.17,0,0,0,82.86,33,17.22,17.22,0,0,0,66,19.26q-13.86,0-27.73,0a23,23,0,0,0-4.76.45A17.12,17.12,0,0,0,20.1,36.33q0,14,0,28a20.56,20.56,0,0,0,.37,4.29A17.15,17.15,0,0,0,37.39,82.35C42.13,82.36,46.88,82.35,51.62,82.35Z"/><path class="cls-1" d="M51.74,32A18.8,18.8,0,1,1,32.85,50.76,18.83,18.83,0,0,1,51.74,32Zm0,5.73a13.07,13.07,0,1,0,13,13.08A13.08,13.08,0,0,0,51.7,37.74Z"/><path class="cls-1" d="M67.59,30a4.89,4.89,0,1,1,9.78.19A4.89,4.89,0,0,1,67.59,30Z"/></svg>