<svg id="Layer_1" data-name="Layer 1" xmlns="http://www.w3.org/2000/svg" viewBox="0 0 100 100"><defs><style>.cls-1{fill:#1ef4f0;}</style></defs><title>Artboard 1</title><path class="cls-1" d="M55.13,45.21c.47-.62.76-1,1.06-1.39a14.47,14.47,0,0,1,11.15-5.74c5-.26,9.58.88,13.26,4.52a17.66,17.66,0,0,1,4.85,10,38.47,38.47,0,0,1,.52,6c0,8.23,0,16.46,0,24.69,0,1.22,0,1.22-1.2,1.22-4.32,0-8.64,0-13,0-.86,0-1.08-.27-1.07-1.1,0-7.76,0-15.52,0-23.28a18.14,18.14,0,0,0-.64-4.87,7.08,7.08,0,0,0-10.51-4.28,8.11,8.11,0,0,0-4.4,6.71c-.06.64,0,1.29,0,1.94q0,11.82,0,23.63c0,1.23,0,1.23-1.18,1.23-4.32,0-8.64,0-13,0-.84,0-1.1-.23-1.09-1.09q.1-14.8.14-29.62c0-4.53,0-9.06-.12-13.58,0-.82.17-1.14,1.06-1.13q6.57.06,13.13,0c.85,0,1.06.3,1,1.08C55.1,41.73,55.13,43.33,55.13,45.21Z"/><path class="cls-1" d="M16.6,61.79c0-7.2,0-14.4,0-21.6,0-.87.21-1.15,1.12-1.14q6.53.06,13.05,0c.8,0,1.06.24,1.06,1.05q0,21.65,0,43.29c0,.86-.26,1.08-1.1,1.08q-6.57-.06-13.13,0c-.78,0-1-.21-1-1C16.62,76.25,16.6,69,16.6,61.79Z"/><path class="cls-1" d="M24.43,33.07c-4.37,0-7.56-2.23-8.47-5.76a7.83,7.83,0,0,1,7.2-10c3.09-.25,5.91.39,7.9,3a7.62,7.62,0,0,1,1,8.07c-1.26,2.95-3.71,4.27-6.77,4.65C24.94,33.07,24.56,33.06,24.43,33.07Z"/></svg>