<svg id="Layer_1" data-name="Layer 1" xmlns="http://www.w3.org/2000/svg" viewBox="0 0 100 100"><defs><style>.cls-1{fill:#1ef4f0;}</style></defs><title>Artboard 1 copy 2</title><path class="cls-1" d="M91.84,41.92c-2.23-8.08-8.73-14.14-15.94-14.84-7.87-.77-14.57,3.5-18.14,11.65-.7,1.6-1.22,3.31-1.9,5.19-.29-.5-.49-.84-.68-1.19a116.66,116.66,0,0,1-8.35-20.42c-.14-.46-.55-1.14-.84-1.15-2.91-.09-5.83-.06-8.88-.06,0,4.29,0,8.38,0,12.47,0,5.66.18,11.34-.2,17-.42,6.28-6,10.19-11.36,8.36-4-1.36-6.31-5.11-6.32-10.3,0-8.56,0-17.13,0-25.7V21.21H9.77v1.47c0,5.5,0,11,0,16.51,0,4.26-.13,8.54.24,12.76.87,10,8.66,17.9,17.49,18.08,9,.18,17-7.4,18.23-17.49.3-2.43.27-4.91.39-7.45a1.91,1.91,0,0,1,.32.35c1.94,3.63,3.9,7.26,5.79,10.93a3.15,3.15,0,0,1,.26,1.87c-1.37,7.31-2.8,14.59-4.2,21.89-.5,2.6-1,5.2-1.49,7.87h9.63q2.12-11.18,4.19-22.23c.23,0,.29,0,.32,0l1.1.63c4.59,2.69,9.41,4,14.59,3C87.56,67.48,95.12,53.82,91.84,41.92ZM72.26,58.74a16,16,0,0,1-8.51-4,2,2,0,0,1-.66-1.47,79.58,79.58,0,0,1,1.75-8.14c1.21-4.09,3.51-7,7.51-7.68a7.94,7.94,0,0,1,1-.08A10.13,10.13,0,0,1,83,48.06C82.57,54.52,77.61,59.42,72.26,58.74Z"/></svg>